<?xml version="1.0" standalone="no"?>
<!DOCTYPE svg PUBLIC "-//W3C//DTD SVG 1.1//EN" "http://www.w3.org/Graphics/SVG/1.1/DTD/svg11.dtd"[]>
<svg width="80mm" height="70mm" viewBox="-10 -50 80 70" xmlns="http://www.w3.org/2000/svg" version="1.1">
  <title>alignment</title>
  <path d=" M 70,-50 L -10,-50 L -10,20 L 70,20 z M 19.8773,-27.503 L 19.7549,-27.512 L 19.6332,-27.5271 L 19.5123,-27.548 L 19.3925,-27.5749 L 19.2743,-27.6076  L 19.1578,-27.6461 L 19.0433,-27.6903 L 18.9311,-27.74 L 18.8215,-27.7952 L 18.7147,-27.8557 L 18.6111,-27.9213  L 18.5107,-27.992 L 18.414,-28.0675 L 18.3211,-28.1476 L 18.2322,-28.2322 L 18.1476,-28.3211 L 18.0675,-28.414  L 17.992,-28.5107 L 17.9213,-28.6111 L 17.8557,-28.7147 L 17.7952,-28.8215 L 17.74,-28.9311 L 17.6903,-29.0433  L 17.6461,-29.1578 L 17.6076,-29.2743 L 17.5749,-29.3925 L 17.548,-29.5123 L 17.5271,-29.6332 L 17.512,-29.7549  L 17.503,-29.8773 L 17.5,-30 L 17.503,-30.1227 L 17.512,-30.245 L 17.5271,-30.3668 L 17.548,-30.4877  L 17.5749,-30.6074 L 17.6076,-30.7257 L 17.6461,-30.8422 L 17.6903,-30.9567 L 17.74,-31.0689 L 17.7952,-31.1785  L 17.8557,-31.2852 L 17.9213,-31.3889 L 17.992,-31.4892 L 18.0675,-31.586 L 18.1476,-31.6789 L 18.2322,-31.7678  L 18.3211,-31.8524 L 18.414,-31.9325 L 18.5107,-32.008 L 18.6111,-32.0787 L 18.7147,-32.1443 L 18.8215,-32.2048  L 18.9311,-32.26 L 19.0433,-32.3097 L 19.1578,-32.3539 L 19.2743,-32.3923 L 19.3925,-32.4251 L 19.5123,-32.452  L 19.6332,-32.4729 L 19.7549,-32.488 L 19.8773,-32.497 L 20,-32.5 L 20.1227,-32.497 L 20.245,-32.488  L 20.3668,-32.4729 L 20.4877,-32.452 L 20.6074,-32.4251 L 20.7257,-32.3923 L 20.8422,-32.3539 L 20.9567,-32.3097  L 21.0689,-32.26 L 21.1785,-32.2048 L 21.2852,-32.1443 L 21.3889,-32.0787 L 21.4892,-32.008 L 21.586,-31.9325  L 21.6789,-31.8524 L 21.7678,-31.7678 L 21.8524,-31.6789 L 21.9325,-31.586 L 22.008,-31.4892 L 22.0787,-31.3889  L 22.1443,-31.2852 L 22.2048,-31.1785 L 22.26,-31.0689 L 22.3097,-30.9567 L 22.3539,-30.8422 L 22.3923,-30.7257  L 22.4251,-30.6074 L 22.452,-30.4877 L 22.4729,-30.3668 L 22.488,-30.245 L 22.497,-30.1227 L 22.5,-30  L 22.497,-29.8773 L 22.488,-29.7549 L 22.4729,-29.6332 L 22.452,-29.5123 L 22.4251,-29.3925 L 22.3923,-29.2743  L 22.3539,-29.1578 L 22.3097,-29.0433 L 22.26,-28.9311 L 22.2048,-28.8215 L 22.1443,-28.7147 L 22.0787,-28.6111  L 22.008,-28.5107 L 21.9325,-28.414 L 21.8524,-28.3211 L 21.7678,-28.2322 L 21.6789,-28.1476 L 21.586,-28.0675  L 21.4892,-27.992 L 21.3889,-27.9213 L 21.2852,-27.8557 L 21.1785,-27.7952 L 21.0689,-27.74 L 20.9567,-27.6903  L 20.8422,-27.6461 L 20.7257,-27.6076 L 20.6074,-27.5749 L 20.4877,-27.548 L 20.3668,-27.5271 L 20.245,-27.512  L 20.1227,-27.503 L 20,-27.5 z M 29.632,-7.50301 L 29.2649,-7.51202 L 28.8995,-7.52705 L 28.5368,-7.54803 L 28.1776,-7.57492 L 27.8229,-7.60764  L 27.4733,-7.64613 L 27.1299,-7.69029 L 26.7933,-7.74002 L 26.4645,-7.7952 L 26.1442,-7.85567 L 25.8332,-7.92133  L 25.5322,-7.99197 L 25.2421,-8.06746 L 24.9633,-8.14761 L 24.6967,-8.23222 L 24.4429,-8.32109 L 24.2024,-8.41402  L 23.9759,-8.51074 L 23.764,-8.61107 L 23.567,-8.71474 L 23.3856,-8.8215 L 23.2201,-8.93111 L 23.0709,-9.04329  L 22.9384,-9.15776 L 22.8229,-9.27428 L 22.7248,-9.39255 L 22.6441,-9.51227 L 22.5812,-9.63316 L 22.5361,-9.75494  L 22.509,-9.87732 L 22.5,-10 L 22.509,-10.1227 L 22.5361,-10.245 L 22.5812,-10.3668 L 22.6441,-10.4877  L 22.7248,-10.6074 L 22.8229,-10.7257 L 22.9384,-10.8422 L 23.0709,-10.9567 L 23.2201,-11.0689 L 23.3856,-11.1785  L 23.567,-11.2852 L 23.764,-11.3889 L 23.9759,-11.4892 L 24.2024,-11.586 L 24.4429,-11.6789 L 24.6967,-11.7678  L 24.9633,-11.8524 L 25.2421,-11.9325 L 25.5322,-12.008 L 25.8332,-12.0787 L 26.1442,-12.1443 L 26.4645,-12.2048  L 26.7933,-12.26 L 27.1299,-12.3097 L 27.4733,-12.3539 L 27.8229,-12.3923 L 28.1776,-12.4251 L 28.5368,-12.452  L 28.8995,-12.4729 L 29.2649,-12.488 L 29.632,-12.497 L 30,-12.5 L 30.368,-12.497 L 30.7351,-12.488  L 31.1005,-12.4729 L 31.4632,-12.452 L 31.8223,-12.4251 L 32.1771,-12.3923 L 32.5267,-12.3539 L 32.8701,-12.3097  L 33.2066,-12.26 L 33.5355,-12.2048 L 33.8558,-12.1443 L 34.1668,-12.0787 L 34.4677,-12.008 L 34.7579,-11.9325  L 35.0367,-11.8524 L 35.3033,-11.7678 L 35.5571,-11.6789 L 35.7976,-11.586 L 36.024,-11.4892 L 36.236,-11.3889  L 36.433,-11.2852 L 36.6144,-11.1785 L 36.7799,-11.0689 L 36.9291,-10.9567 L 37.0616,-10.8422 L 37.177,-10.7257  L 37.2752,-10.6074 L 37.3559,-10.4877 L 37.4188,-10.3668 L 37.4639,-10.245 L 37.491,-10.1227 L 37.5,-10  L 37.491,-9.87732 L 37.4639,-9.75494 L 37.4188,-9.63316 L 37.3559,-9.51227 L 37.2752,-9.39255 L 37.177,-9.27428  L 37.0616,-9.15776 L 36.9291,-9.04329 L 36.7799,-8.93111 L 36.6144,-8.8215 L 36.433,-8.71474 L 36.236,-8.61107  L 36.024,-8.51074 L 35.7976,-8.41402 L 35.5571,-8.32109 L 35.3033,-8.23222 L 35.0367,-8.14761 L 34.7579,-8.06746  L 34.4677,-7.99197 L 34.1668,-7.92133 L 33.8558,-7.85567 L 33.5355,-7.7952 L 33.2066,-7.74002 L 32.8701,-7.69029  L 32.5267,-7.64613 L 32.1771,-7.60764 L 31.8223,-7.57492 L 31.4632,-7.54803 L 31.1005,-7.52705 L 30.7351,-7.51202  L 30.368,-7.50301 L 30,-7.5 z " stroke="red" fill="none" stroke-width="0.01" id="cut_path" />
  <path d=" M 20.1227,-27.503 L 20.245,-27.512 L 20.3668,-27.5271 L 20.4877,-27.548 L 20.6074,-27.5749 L 20.7257,-27.6076  L 20.8422,-27.6461 L 20.9567,-27.6903 L 21.0689,-27.74 L 21.1785,-27.7952 L 21.2852,-27.8557 L 21.3889,-27.9213  L 21.4892,-27.992 L 21.586,-28.0675 L 21.6789,-28.1476 L 21.7678,-28.2322 L 21.8524,-28.3211 L 21.9325,-28.414  L 22.008,-28.5107 L 22.0787,-28.6111 L 22.1443,-28.7147 L 22.2048,-28.8215 L 22.26,-28.9311 L 22.3097,-29.0433  L 22.3539,-29.1578 L 22.3923,-29.2743 L 22.4251,-29.3925 L 22.452,-29.5123 L 22.4729,-29.6332 L 22.488,-29.7549  L 22.497,-29.8773 L 22.5,-30 L 22.497,-30.1227 L 22.488,-30.245 L 22.4729,-30.3668 L 22.452,-30.4877  L 22.4251,-30.6074 L 22.3923,-30.7257 L 22.3539,-30.8422 L 22.3097,-30.9567 L 22.26,-31.0689 L 22.2048,-31.1785  L 22.1443,-31.2852 L 22.0787,-31.3889 L 22.008,-31.4892 L 21.9325,-31.586 L 21.8524,-31.6789 L 21.7678,-31.7678  L 21.6789,-31.8524 L 21.586,-31.9325 L 21.4892,-32.008 L 21.3889,-32.0787 L 21.2852,-32.1443 L 21.1785,-32.2048  L 21.0689,-32.26 L 20.9567,-32.3097 L 20.8422,-32.3539 L 20.7257,-32.3923 L 20.6074,-32.4251 L 20.4877,-32.452  L 20.3668,-32.4729 L 20.245,-32.488 L 20.1227,-32.497 L 20,-32.5 L 19.8773,-32.497 L 19.7549,-32.488  L 19.6332,-32.4729 L 19.5123,-32.452 L 19.3925,-32.4251 L 19.2743,-32.3923 L 19.1578,-32.3539 L 19.0433,-32.3097  L 18.9311,-32.26 L 18.8215,-32.2048 L 18.7147,-32.1443 L 18.6111,-32.0787 L 18.5107,-32.008 L 18.414,-31.9325  L 18.3211,-31.8524 L 18.2322,-31.7678 L 18.1476,-31.6789 L 18.0675,-31.586 L 17.992,-31.4892 L 17.9213,-31.3889  L 17.8557,-31.2852 L 17.7952,-31.1785 L 17.74,-31.0689 L 17.6903,-30.9567 L 17.6461,-30.8422 L 17.6076,-30.7257  L 17.5749,-30.6074 L 17.548,-30.4877 L 17.5271,-30.3668 L 17.512,-30.245 L 17.503,-30.1227 L 17.5,-30  L 17.503,-29.8773 L 17.512,-29.7549 L 17.5271,-29.6332 L 17.548,-29.5123 L 17.5749,-29.3925 L 17.6076,-29.2743  L 17.6461,-29.1578 L 17.6903,-29.0433 L 17.74,-28.9311 L 17.7952,-28.8215 L 17.8557,-28.7147 L 17.9213,-28.6111  L 17.992,-28.5107 L 18.0675,-28.414 L 18.1476,-28.3211 L 18.2322,-28.2322 L 18.3211,-28.1476 L 18.414,-28.0675  L 18.5107,-27.992 L 18.6111,-27.9213 L 18.7147,-27.8557 L 18.8215,-27.7952 L 18.9311,-27.74 L 19.0433,-27.6903  L 19.1578,-27.6461 L 19.2743,-27.6076 L 19.3925,-27.5749 L 19.5123,-27.548 L 19.6332,-27.5271 L 19.7549,-27.512  L 19.8773,-27.503 L 20,-27.5 z M 30.368,-7.50301 L 30.7351,-7.51202 L 31.1005,-7.52705 L 31.4632,-7.54803 L 31.8223,-7.57492 L 32.1771,-7.60764  L 32.5267,-7.64613 L 32.8701,-7.69029 L 33.2066,-7.74002 L 33.5355,-7.7952 L 33.8558,-7.85567 L 34.1668,-7.92133  L 34.4677,-7.99197 L 34.7579,-8.06746 L 35.0367,-8.14761 L 35.3033,-8.23222 L 35.5571,-8.32109 L 35.7976,-8.41402  L 36.024,-8.51074 L 36.236,-8.61107 L 36.433,-8.71474 L 36.6144,-8.8215 L 36.7799,-8.93111 L 36.9291,-9.04329  L 37.0616,-9.15776 L 37.177,-9.27428 L 37.2752,-9.39255 L 37.3559,-9.51227 L 37.4188,-9.63316 L 37.4639,-9.75494  L 37.491,-9.87732 L 37.5,-10 L 37.491,-10.1227 L 37.4639,-10.245 L 37.4188,-10.3668 L 37.3559,-10.4877  L 37.2752,-10.6074 L 37.177,-10.7257 L 37.0616,-10.8422 L 36.9291,-10.9567 L 36.7799,-11.0689 L 36.6144,-11.1785  L 36.433,-11.2852 L 36.236,-11.3889 L 36.024,-11.4892 L 35.7976,-11.586 L 35.5571,-11.6789 L 35.3033,-11.7678  L 35.0367,-11.8524 L 34.7579,-11.9325 L 34.4677,-12.008 L 34.1668,-12.0787 L 33.8558,-12.1443 L 33.5355,-12.2048  L 33.2066,-12.26 L 32.8701,-12.3097 L 32.5267,-12.3539 L 32.1771,-12.3923 L 31.8223,-12.4251 L 31.4632,-12.452  L 31.1005,-12.4729 L 30.7351,-12.488 L 30.368,-12.497 L 30,-12.5 L 29.632,-12.497 L 29.2649,-12.488  L 28.8995,-12.4729 L 28.5368,-12.452 L 28.1776,-12.4251 L 27.8229,-12.3923 L 27.4733,-12.3539 L 27.1299,-12.3097  L 26.7933,-12.26 L 26.4645,-12.2048 L 26.1442,-12.1443 L 25.8332,-12.0787 L 25.5322,-12.008 L 25.2421,-11.9325  L 24.9633,-11.8524 L 24.6967,-11.7678 L 24.4429,-11.6789 L 24.2024,-11.586 L 23.9759,-11.4892 L 23.764,-11.3889  L 23.567,-11.2852 L 23.3856,-11.1785 L 23.2201,-11.0689 L 23.0709,-10.9567 L 22.9384,-10.8422 L 22.8229,-10.7257  L 22.7248,-10.6074 L 22.6441,-10.4877 L 22.5812,-10.3668 L 22.5361,-10.245 L 22.509,-10.1227 L 22.5,-10  L 22.509,-9.87732 L 22.5361,-9.75494 L 22.5812,-9.63316 L 22.6441,-9.51227 L 22.7248,-9.39255 L 22.8229,-9.27428  L 22.9384,-9.15776 L 23.0709,-9.04329 L 23.2201,-8.93111 L 23.3856,-8.8215 L 23.567,-8.71474 L 23.764,-8.61107  L 23.9759,-8.51074 L 24.2024,-8.41402 L 24.4429,-8.32109 L 24.6967,-8.23222 L 24.9633,-8.14761 L 25.2421,-8.06746  L 25.5322,-7.99197 L 25.8332,-7.92133 L 26.1442,-7.85567 L 26.4645,-7.7952 L 26.7933,-7.74002 L 27.1299,-7.69029  L 27.4733,-7.64613 L 27.8229,-7.60764 L 28.1776,-7.57492 L 28.5368,-7.54803 L 28.8995,-7.52705 L 29.2649,-7.51202  L 29.632,-7.50301 L 30,-7.5 z " stroke="none" fill="black" id="engrave_path" />
</svg>